<svg enable-background="new 0 0 60 60" viewBox="0 0 60 60" xmlns="http://www.w3.org/2000/svg"><circle cx="30" cy="30" fill="#0a8901" r="30"/><g fill="none"><circle cx="17.9" cy="20.1" r="4" stroke="#fff" stroke-miterlimit="10" stroke-width="2"/><circle cx="29.1" cy="19.7" r="4" stroke="#fff" stroke-miterlimit="10" stroke-width="2"/><circle cx="17.9" cy="30.4" r="4" stroke="#fff" stroke-miterlimit="10" stroke-width="2"/><path d="m24.4 30.4c0-2.2 1.8-4 4-4m7.7-7.6c.4-1.2 1.4-2.1 2.6-2.4m5.4 11.9c.4.6.6 1.3.6 2.1 0 2.2-1.8 4-4 4-.7 0-1.3-.2-1.9-.5m-17.4 8.4c-.7 1.3-2 2.1-3.5 2.1-2.2 0-4-1.8-4-4s1.8-4 4-4c.8 0 1.6.3 2.2.7m11.1-.2c1.3.6 2.3 2 2.3 3.6 0 2.2-1.8 4-4 4-2 0-3.6-1.4-3.9-3.3 0-.2-.1-.4-.1-.6" stroke="#fff" stroke-linecap="round" stroke-linejoin="round" stroke-miterlimit="10" stroke-width="2"/><circle cx="40.7" cy="40.5" r="4" stroke="#fff" stroke-miterlimit="10" stroke-width="2"/></g><path d="m20.5 40.1-1.4 1.4c-.3.3-.3.7 0 1 .1.1.3.2.4.2s.3-.1.4-.2l1.4-1.4 5.8-2.1-4.5-4.5c.1-.1-2.1 5.6-2.1 5.6zm24.5-18.7.8-.8c.9-.9.9-2.2 0-3.1l-1.8-1.8c-.8-.8-2.2-.8-3.1 0l-6.1 6.1 4.9 4.9 4.3-4.3.5.5c.3.3.4.8.4 1.2-.1.4-.3.8-.7 1.1l-4.9 2.7c-1.4.7-2.3 2.1-2.3 3.7 0 .3.3.7.6.7s.6-.3.7-.6c.1-1.1.6-2 1.6-2.6l4.9-2.7c.8-.4 1.2-1.1 1.4-2 .1-.9-.2-1.8-.8-2.4z" fill="#fad124"/><path d="m23.5 33.3 10.4-10.4 4.9 4.9-10.4 10.4z" fill="#fad124"/><path d="m16.6 38.8 2.8 3.6m.1-3.6-2.9 3.5m11.4-24.2 2.9 3.6m0-3.6-2.9 3.5" style="fill:none;stroke:#fad124;stroke-width:2;stroke-linecap:round;stroke-linejoin:round;stroke-miterlimit:10"/></svg>