<svg enable-background="new 0 0 60 60" viewBox="0 0 60 60" xmlns="http://www.w3.org/2000/svg"><circle cx="30" cy="30" fill="#0a8901" r="30"/><path d="m42 14.9h-1.2v2.3c0 .6-.6 1.1-1.3 1.1s-1.3-.5-1.3-1.1v-2.3h-17.1v2.3c0 .6-.6 1.1-1.3 1.1s-1.3-.5-1.3-1.1v-2.3h-.9c-2 0-3.6 1.4-3.6 3.1v23.8c0 1.7 1.7 3.1 3.6 3.1h24.4c2 0 3.6-1.4 3.6-3.1v-23.7c.1-1.8-1.6-3.2-3.6-3.2zm1.7 27c0 .8-.7 1.4-1.7 1.4h-24.3c-.9 0-1.7-.6-1.7-1.4v-19.2h27.7z" fill="#fff"/><path d="m19.4 26.2h6.3v6.3h-6.3z" fill="#fff"/><path d="m26.9 26.2h6.3v6.3h-6.3z" fill="#ffe000"/><path d="m34.4 26.2h6.3v6.3h-6.3z" fill="#fff"/><path d="m19.4 33.5h6.3v6.3h-6.3z" fill="#ffe000"/><g fill="#fff"><path d="m26.9 33.5h6.3v6.3h-6.3z"/><path d="m34.4 33.5h6.3v6.3h-6.3z"/></g></svg>