<svg enable-background="new 0 0 60 60" viewBox="0 0 60 60" xmlns="http://www.w3.org/2000/svg"><circle cx="29.7" cy="30" fill="#0a8901" r="30"/><path d="m26.8 41.9c-1.7-.5-3.7-1-5.4-1.6-1.2-.3-4.9.7-1 1.9 2.2-.1 4.3-.1 6.4-.3zm5.2-.9c.5.3-.2.3-1 0-1.4-.9-2.8-1.7-4.5-2.6-2.3-.9-4.3.3-2.3 1.4.9.5 2.1 1.4 3.3 2.1 2.6-.2 6.3 0 8.7-.7-1.7-1.4-4.3-3.5-5.4-4.5-1.4-1.4-2.8-1.4-2.6-.2.1 1 3.1 3.6 3.8 4.5z" fill="#fff"/><path d="m41.4 30.4c-.2 1.7-.9 3.1-.7 4.9.2 1.6 4.9 3.3 5.2 5.4.9 4.2 2.3 3.7 5.2 5.2-1.4 1.6-3.1 4-4.5 5.6-8.7-6.3-21-6.4-29.7-6.3-.2-1.2.5-1.9 1.9-2.1 4.3-.5 9.2-.9 13.6-.9 6.1 0 7.1-1.9 5.9-5-1.3-3.2-.4-6.1 3.1-6.8z" fill="#fff"/><g fill="#fad124"><path d="m36 16.6-22.3-5-3.3 14.6 22.3 5s3.3-14.6 3.3-14.6zm-13.7 8.9c-2.3-.5-3.7-2.8-3.2-5 .5-2.3 2.8-3.7 5-3.2 2.3.5 3.7 2.8 3.2 5-.5 2.3-2.8 3.7-5 3.2z"/><path d="m34.4 33.7-19.8-4.4-.4 1.7 21.5 4.8 3.1-13.8-1.7-.4z"/></g></svg>