<svg enable-background="new 0 0 60 60" viewBox="0 0 60 60" xmlns="http://www.w3.org/2000/svg"><circle cx="30" cy="30" fill="#0a8901" r="30"/><path d="m15.3 15.1h30.5v30.5h-30.5zm-.2 16h30.5m-14.9-15.5v29.8" fill="none" stroke="#fff" stroke-miterlimit="10" stroke-width="3"/><path d="m21.2 28.3c-.7-.3-1.2-.7-1.6-1.3-.4-.5-.5-1.2-.5-1.9 0-.8.4-1.8 1.2-3l2.5-3.4c.1-.2.3-.3.5-.3h2c.1 0 .2 0 .2.1s.1.1.1.2 0 .1-.1.2l-1.9 2.6h.4c.6 0 1.2.2 1.7.5.6.3 1 .7 1.4 1.2.3.5.5 1.1.5 1.8s-.2 1.3-.5 1.9-.9 1-1.5 1.3-1.4.5-2.3.5c-.7 0-1.5-.1-2.1-.4zm3.3-2.1c.3-.3.4-.6.4-1.1s-.2-.8-.4-1.1-.7-.4-1.1-.4-.8.1-1.1.4-.4.6-.4 1.1.2.8.4 1.1.7.4 1.1.4c.5-.1.8-.2 1.1-.4z" fill="#fad124"/><path d="m24 43.4c-.1-.1-.1-.2-.1-.3v-1.6h-4.5c-.1 0-.2 0-.3-.1s-.1-.1-.1-.2v-1.5c0-.2.1-.3.2-.4l4.2-5.7c.1-.2.3-.3.5-.3h2.2c.1 0 .2 0 .3.1s.1.2.1.3v5.6h1.3c.1 0 .2 0 .3.1s.1.2.1.3v1.5c0 .1 0 .2-.1.3s-.2.1-.3.1h-1.3v1.6c0 .1 0 .2-.1.3s-.2.1-.3.1h-1.9c0-.1-.1-.1-.2-.2zm-2.4-4h2.4v-3.3z" fill="#fff"/><path d="m35.8 43.4c-.1-.1-.1-.1-.1-.2s0-.1.1-.2l2-2.8c-.1 0-.3 0-.4 0-.6 0-1.1-.2-1.7-.5-.5-.3-1-.7-1.3-1.2s-.5-1.1-.5-1.7.2-1.2.5-1.8.8-1 1.4-1.3 1.4-.5 2.3-.5 1.7.2 2.3.5 1.1.7 1.5 1.3c.3.5.5 1.1.5 1.8 0 .5-.1 1-.3 1.5-.2.4-.5 1-1 1.6l-.3.3-2.3 3.1c-.1.2-.3.3-.5.3h-2c0-.1-.1-.1-.2-.2zm3.5-5.5c.3-.3.4-.6.4-1s-.1-.8-.4-1c-.3-.3-.6-.4-1-.4s-.8.1-1 .4c-.3.3-.4.6-.4 1s.1.8.4 1c.3.3.6.4 1 .4.3 0 .7-.2 1-.4z" fill="#fad124"/><path d="m37.3 28.5c-.1-.1-.1-.2-.1-.3v-6.8l-1.9 1.5c-.1.1-.2.1-.2.1-.1 0-.2-.1-.3-.2l-.9-1.2c0-.1-.1-.1-.1-.2s.1-.3.2-.3l3.4-2.6c.1-.1.2-.1.3-.1h1.9c.1 0 .2 0 .3.1s.1.2.1.3v9.5c0 .1 0 .2-.1.3s-.2.1-.3.1h-2c-.1-.1-.2-.2-.3-.2z" fill="#fff"/></svg>