<svg enable-background="new 0 0 512 512" viewBox="0 0 512 512" xmlns="http://www.w3.org/2000/svg"><g fill="#0a8901"><path d="m437 75c-101.4-98.5-263.5-96.1-362 5.3-96.5 99.3-96.5 257.4 0 356.7 101.4 98.5 263.5 96.1 362-5.3 96.5-99.3 96.5-257.4 0-356.7zm-181 368.3c-103.3 0-187.3-84-187.3-187.3s84-187.3 187.3-187.3 187.3 84 187.3 187.3-84 187.3-187.3 187.3z"/><path d="m256 98.7c-86.8 0-157.3 70.6-157.3 157.3s70.6 157.3 157.3 157.3 157.3-70.5 157.3-157.3-70.5-157.3-157.3-157.3zm71.9 93.3h-58.5c6.4 8.6 10.9 18.5 13.1 29h45.4v30h-45.3c-4.9 24.3-21.7 44.6-44.6 54.1l54.5 49.5-20.2 22.2-77.7-70.5v-25.6h15c18.9 0 35.7-11.9 41.9-29.7h-67.5v-30h67.2c-6.5-17.4-23-29-41.6-29h-25.6v-30h143.8v30z"/></g></svg>