<svg enable-background="new 0 0 302.8 302.8" viewBox="0 0 302.8 302.8" xmlns="http://www.w3.org/2000/svg"><path d="m298.4 128.6-62.5-62.5c-.4-.4-.7-.7-1.1-1-.2-.2-.4-.3-.7-.5-.2-.1-.3-.3-.5-.4-.3-.2-.6-.4-.9-.5-.1-.1-.2-.1-.4-.2-.3-.2-.6-.3-.9-.4-.2-.1-.3-.1-.5-.2-.3-.1-.5-.2-.8-.3-.2-.1-.4-.2-.6-.2-.2-.1-.4-.1-.6-.2-.3-.1-.5-.1-.8-.2-.2 0-.3 0-.5-.1-.3-.1-.6-.1-1-.1-.1 0-.3 0-.4 0-.4 0-.7-.1-1.1-.1-.2 0-.4 0-.6 0-.3 0-.6 0-.9 0-.5 0-1 .1-1.5.2-.1 0-.1 0-.2 0-.4.1-.8.2-1.2.3-.2 0-.3.1-.5.2-.3.1-.6.2-.9.3-.2.1-.4.2-.6.3s-.5.2-.7.3-.5.3-.7.4-.4.2-.5.3c-.3.2-.5.4-.8.6-.1.1-.2.2-.4.3-.3.3-.7.6-1 .9l-.1.1-62.4 62.4c-5.9 5.9-5.9 15.4 0 21.2 2.9 2.9 6.8 4.4 10.6 4.4s7.7-1.5 10.6-4.4l38.8-38.8c-4.3 47.3-39.2 88.3-88.1 98-6.7 1.3-13.5 2-20.2 2.1-14.5.2-28.9-2.5-42.2-7.9-1-.4-2-.8-3.1-1.3-12.2-5.3-23.5-12.9-33.2-22.5-5.9-5.8-15.4-5.7-21.2.2s-5.7 15.4.2 21.2c8.3 8.2 17.4 15.1 27.2 20.9 21.5 12.7 46 19.4 71.1 19.4 9.1 0 18.2-.9 27.3-2.7 61.9-12.3 106.1-63.9 112-123.7l35.1 35.1c5.9 5.9 15.4 5.9 21.2 0 6.1-5.5 6.1-15 .2-20.9z" fill="#fff"/></svg>