<svg enable-background="new 0 0 22.5 23.3" viewBox="0 0 22.5 23.3" xmlns="http://www.w3.org/2000/svg"><g fill="#0a8901"><path d="m22.2 1.2c-.4-.4-.9-.4-1.3 0l-1.9 1.9c-1-1-2.3-1.8-3.6-2.3-1.3-.5-2.7-.8-4.2-.8-2.6-.1-5 .8-7 2.4s-3.4 3.9-4 6.4v.1c0 .1.1.2.1.3.1.1.2.1.3.1h2.9c.3.1.5-.1.5-.3.2-.6.5-1.2.8-1.7 1.3-2.2 3.8-3.6 6.4-3.6 1.9 0 3.7.7 5.1 2l-2 2.1c-.4.4-.4 1 0 1.3.2.2.4.3.7.3h6.6c.5 0 .9-.4.9-1v-6.5c0-.3-.1-.5-.3-.7z"/><path d="m21.7 13.1h-2.8c-.2 0-.4.1-.4.3-.2.6-.5 1.2-.8 1.7-1.3 2.2-3.8 3.6-6.4 3.6-.9 0-1.9-.2-2.7-.5-.9-.3-1.7-.8-2.4-1.5l2-2c.4-.4.4-1 0-1.3-.2-.2-.4-.3-.7-.3h-6.6c-.2 0-.5.1-.7.3-.1.2-.2.4-.2.7v6.6c0 .2.1.5.3.7s.4.3.7.3c.2 0 .5-.1.7-.3l1.9-1.9c1 1 2.3 1.8 3.6 2.3s2.7.8 4.1.8c2.5.1 5-.8 7-2.4s3.4-3.9 3.9-6.4v-.1c0-.3-.2-.5-.5-.6z"/></g></svg>