<svg height="486.65" viewBox="0 0 512 486.65" width="512" xmlns="http://www.w3.org/2000/svg"><g fill="#0a8901"><path d="m503.4 216.21-229.72-209.32a26.13 26.13 0 0 0 -35.37 0l-229.71 209.32a26.25 26.25 0 0 0 17.68 45.66h36.72v209.72a15.06 15.06 0 0 0 15 15.06h125.94a15.06 15.06 0 0 0 15.06-15.06v-127.33h74v127.33a15.06 15.06 0 0 0 15.06 15.06h125.94a15.06 15.06 0 0 0 15-15.06v-209.72h36.7a26.25 26.25 0 0 0 17.68-45.66z"/><path d="m445.09 30.05h-101.09l116.15 105.64v-90.58a15.06 15.06 0 0 0 -15.06-15.06z"/></g></svg>