<svg height="35" overflow="scroll" width="35" xmlns="http://www.w3.org/2000/svg"><path d="m11.3 31.2h12.6c1.5 0 2.8-1.2 2.8-2.8v-19.5h-18.2v19.5c0 1.5 1.2 2.8 2.8 2.8zm10.6-18.8c0-.5.4-.9.9-.9s.9.4.9.9v15.1c0 .5-.4.9-.9.9s-.9-.4-.9-.9zm-5.2 0c0-.5.4-.9.9-.9s.9.4.9.9v15.1c0 .5-.4.9-.9.9s-.9-.4-.9-.9zm-5.3 0c0-.5.4-.9.9-.9s.9.4.9.9v15.1c0 .5-.4.9-.9.9s-.9-.4-.9-.9zm13.4-7.9h-3.8c-.1-.8-.8-1.5-1.6-1.5h-3.6c-.9 0-1.6.7-1.6 1.5h-3.8c-2 0-3.5 1.5-3.5 3.4h21.4c-.1-1.9-1.6-3.4-3.5-3.4z" fill="#333"/></svg>