<svg enable-background="new 0 0 189 189" viewBox="0 0 189 189" xmlns="http://www.w3.org/2000/svg"><circle cx="94.5" cy="94.5" fill="#0a8901" r="94.5"/><path d="m96 152.5c7 0 12.8-5.1 13.7-11.9h-27.4c.9 6.8 6.7 11.9 13.7 11.9z" fill="#fff"/><path d="m138.1 122.2c-.5-.4-1.1-.8-1.6-1.3h-81.1c-.5.5-1.1.9-1.6 1.3-2 1.3-3.3 3.6-3.3 6.1 0 4.1 3.3 7.2 7.2 7.2h37.8.7 37.8c4.1 0 7.2-3.3 7.2-7.2.1-2.6-1.1-4.8-3.1-6.1z" fill="#fff"/><circle cx="129.6" cy="79.4" fill="#f6cb00" r="20.4"/><path d="m63.7 86.9c0 14.5-2 23.3-4.6 28.7h73.8c-1.3-2.6-2.4-6.1-3.2-10.5h-.1c-14.2 0-25.7-11.5-25.7-25.7 0-8.6 4.2-16.1 10.5-20.7-2.4-1.6-4.7-2.6-7-3.6.3-.9.3-1.8.3-2.6 0-6.6-5.3-11.9-11.9-11.9s-11.9 5.3-11.9 11.9c0 .9.1 1.8.3 2.6-9.1 3.6-20.5 12-20.5 31.8zm32.3-41.2c3.7 0 6.6 2.9 6.6 6.6 0 .4 0 .8-.1 1.1-5.7-1.4-10.7-.5-13 0 0-.4-.1-.7-.1-1.1 0-3.7 2.9-6.6 6.6-6.6zm-22.4 35.2c1.4-10.4 11.4-16.2 11.8-16.4 1.3-.7 2.9-.3 3.6.9.7 1.3.3 2.9-.9 3.6-.1.1-8.2 4.9-9.2 12.5-.1 1.3-1.3 2.2-2.6 2.2-.1 0-.3 0-.4 0-1.5 0-2.5-1.3-2.3-2.8z" fill="#fff"/></svg>