<svg enable-background="new 0 0 189 189" viewBox="0 0 189 189" xmlns="http://www.w3.org/2000/svg"><circle cx="94.5" cy="94.5" fill="#0a8901" r="94.5"/><path d="m145.5 70.6h-33.5c-2.1 0-3.7 1.7-3.7 3.7v68.9c0 2.1 1.7 3.7 3.7 3.7h33.5c2.1 0 3.7-1.7 3.7-3.7v-68.8c0-2.1-1.7-3.8-3.7-3.8zm-11.2 4.7c1 0 1.9.8 1.9 1.9 0 1-.8 1.9-1.9 1.9s-1.9-.8-1.9-1.9.9-1.9 1.9-1.9zm-12.1.9h5.6c.5 0 .9.4.9.9s-.4.9-.9.9h-5.6c-.5 0-.9-.4-.9-.9s.4-.9.9-.9zm6.5 66.1c-1.5 0-2.8-1.3-2.8-2.8s1.3-2.8 2.8-2.8 2.8 1.3 2.8 2.8c0 1.6-1.3 2.8-2.8 2.8zm-14.9-10.2v-48.4h29.8v48.4z" fill="#f6cb00"/><path d="m44.9 57.6h93.1v9.3h5.6v-11.2c0-2.1-1.7-3.7-3.7-3.7h-96.9c-2.1 0-3.7 1.7-3.7 3.7v68.9c0 2.1 1.7 3.7 3.7 3.7h36.3c0 4.1-3.3 7.5-7.5 7.5v5.6h32.6v-29.8h-59.5zm49.3 59.6c1.5 0 2.8 1.3 2.8 2.8s-1.3 2.8-2.8 2.8-2.8-1.3-2.8-2.8 1.3-2.8 2.8-2.8z" fill="#fff"/></svg>