<svg enable-background="new 0 0 189 189" viewBox="0 0 189 189" xmlns="http://www.w3.org/2000/svg"><circle cx="94.5" cy="94.5" fill="#0a8901" r="94.5"/><path d="m144.7 88.4c-.5-7.7-7.6-10.7-11.4-11.3-.2 0-.3 0-.5 0l-20.5-.1c.3-1.3 1.1-3.1 3.2-5.4 7.3-8.1 4.8-20 4.7-20.4 0-.1 0-.2-.1-.3-1.2-3.8-3.4-6.7-6.6-8.2-5.6-2.9-12-.7-12.6-.5-1.6.5-2.7 2-2.9 3.8-.5 6.4-1.8 13.1-2.7 14.7-2.2 2.5-6.5 6.5-10.5 9.4-3.8 2.7-4.9 7.5-6 11.7-.6 2.2-1 4.3-1.8 5.7-1.3 2.4-4.3 2.6-4.5 2.7-2.3.1-4.1 1.9-4.2 4.3l-.4 38.7c0 1.4.4 2.7 1.6 3.6 1.1.8 2.3 1.1 3.6.8.5 0 3.2-.1 8.2 1.7 3.6 1.3 11.3 1.8 19.4 1.9 11.6.1 24.4-.7 28.3-1.5 4.5-.8 7.6-3.4 8.5-6.9.6-2.1.1-4-.9-5.9.2-.1.4-.2.7-.3 1.7-1 3.1-2.6 3.6-4.6.7-2.8-.1-6.1-1.1-8.5 1-.8 2.2-1.7 3.1-3.1 2.6-3.8 2-9-1.3-12.6-.1-.1-.1-.3 0-.4 3.4-3.1 3.2-7.8 3.1-9zm-8.7 1v.2c.1-.2.1.5 0 .9-1.9 1.5-3 3.8-3.1 6.2-.2 2.5.6 5 2.3 6.9.5.5.9 1.4.5 1.9-.3.5-1.1 1-1.8 1.5-.9.6-2 1.3-2.7 2.4-1.4 1.9-1.4 4.6.1 6.6.5.8 1.1 2.4 1.2 3.4 0 0-.1 0-.1.1-2.6 1.3-5.7 2.8-6 6.3-.1 1.3.1 3.4 2.2 5.2-.3.1-.7.2-1.1.3-6.7 1.3-37 2.1-43 0-3.1-1.1-5.6-1.7-7.7-2l.2-31.1c2.7-1 5.8-2.9 7.7-6.4 1.3-2.4 2-5.2 2.7-7.8s1.5-5.9 2.5-6.7c4.6-3.3 9.3-7.8 11.9-10.7s3.9-10.5 4.6-16.4c1.1-.1 2.3 0 3.1.6.6.3 1.5 1 2 2.8.2 1.1 1.2 8.3-2.7 12.6-6.9 7.6-6.1 14.6-4.5 17.6.8 1.4 2.2 2.3 3.8 2.3" fill="#fff"/><path d="m61.1 91.8-14.1-.1-.3 44.6 12.7.1c4.2 0 4.3-3.1 4.3-3.1l.3.1s.3-33.4.3-37.6c0-4.4-3.2-4-3.2-4z" fill="#f6cb00"/></svg>